<?xml version="1.0" encoding="UTF-8"?>
<!-- Generator: Adobe Illustrator 16.0.0, SVG Export Plug-In . SVG Version: 6.00 Build 0)  -->
<!DOCTYPE svg PUBLIC "-//W3C//DTD SVG 1.1//EN" "http://www.w3.org/Graphics/SVG/1.1/DTD/svg11.dtd">
<svg version="1.1" id="Layer_1" xmlns="http://www.w3.org/2000/svg" xmlns:xlink="http://www.w3.org/1999/xlink" x="0px" y="0px" width="250px" height="250px" viewBox="0 0 250 250" enable-background="new 0 0 250 250" xml:space="preserve">
	 <mask id="test">
<path fill="#FFFFFF" d="M20.595,133.182V116.41l0.397-0.473l0.033-2.862l0.073-0.766l0.318-1.602l0.233-1.528l0.11-1.357
	l0.373-1.365l0.728-4.087l0.634-2.077l0.655-2.789l0.879-3.116l0.808-2.204l1.386-4.019l2.1-5.179l1.113-2.559l2.636-4.956
	l2.022-3.425l1.42-2.243l1.901-2.851l0.522-0.92l1.168-1.48l0.043,1.388L39.8,67.013l0.356-0.022l1.126-2.691l0.004-1.379
	l1.393-0.881l0.713,0.312l-0.276,1.729l0.694,0.867l0.843,0.045l-0.905,2.325l0.497-0.366l2.694-2.634l1.777-0.262l0.612,0.23
	l2.455,0.546l0.354-1.047l-0.013-2.257l-0.062-0.704l-1.884,0.929l-0.333-0.763l-0.348-2.161l-0.332-2.693l-0.235-1.123l0.291-1.624
	l2.415-2.378l2.405-2.06l1.858-1.821l3.021-2.367l1.212-0.929l0.668-0.647l-0.434-0.844l0.692-0.819l0.719-0.07L62.501,42
	l1.676-1.162l4.745-3.279l4.305-2.454l6.455-3.369l2.847-1.32l5.739-2.207l1.116-0.326l3.819-1.289l2.899-0.861l2.93-0.825
	l2.505-0.566l2.232-0.47l1.506-0.287l1.104,0.121l1.004-0.012l2.351-0.771l4.374-0.461l0.796-0.36h18.548l0.712,0.354l1.37,0.135
	l1.419,0.259l4.787,0.639l0.392,0.025l3.115,0.371l-0.444,0.946l-0.658,0.394l-4.903,3.197l1.202,0.87l3.473-1.683l4.673-2.64
	l2.266,1.007l0.441,1.129l0.501-0.831l2.435,0.003l0.678,0.064l2.264,0.757l2.136,0.808l2.055,0.687l3.954,1.579l2.373,0.971
	l4.441,2.153l3.734,2.06l4.458,2.736l3.386,2.156l0.98,0.743l1.81,1.224l1.934,1.573l2.521,1.875l2.637,2.277l5.771,5.713
	l4.061,4.391l2.989,3.729l2.212,2.82l0.78,1.219l1.312,1.748l1.111,1.756l1.356,2.066l1.196,2.165l2.137,3.906l1.688,3.35
	l1.108,2.527l0.119,0.366l2.04,4.864l1.436,4.024l0.625,2.08l0.892,2.722l0.085,0.673l0.979,3.236l0.684,3.369l0.374,2.671
	l0.051,0.388l0.538,2.933l0.335,2.792l0.326,5.393v11.838l-0.278,5.4l-0.025,0.194l-0.67,3.713l-0.018,0.582l-0.027,0.689
	l-0.568,3.532l-0.06,0.287l-0.571,2.527l-0.492,2.213l-0.327,1.28l-0.929,2.888l-0.855,3.015l-0.253,0.926l-1.692,4.228
	l-1.404,3.636l-1.291,2.739l-0.906,1.874l-2.463,4.54l-1.314,2.409l-1.47,2.198l-3.102,4.688l-1.388,1.824l-1.002,1.621
	l-1.316,0.242l-1.878-0.257l-1.866,1.467l-0.011,0.945l0.771,2.125l-0.079,0.695l-0.731,0.887l-1.042,0.594l-0.76,0.064
	l-1.421,2.609l-4.265,4.084l-2.004,1.815l-3.335,2.749l-1.247-0.211l-0.872-1.488l-0.608-0.481l-0.875,2.105l2.283,0.968
	l-0.676,0.608l-1.832,1.216l-2.789,2.001l-2.438,1.483l-4.062,2.448l-1.371,0.664l-3.211,1.802l-4.396,2.065l-1.852,0.779
	l-3.679,1.47l-2.192,0.695l-1.168,0.408l-1.799,0.54l-8.533,0.318l-4.531,0.087l-3.991,0.321l-0.256,0.667l2.009,0.002l0.887,0.809
	l-0.076,0.83l-1.624-0.178l-0.38-0.078l-2.896-0.611l-1.241,0.146l1.388,1.008l0.287,0.833l-1.518,0.006l-1.37,0.115l-1.554,0.197
	h-9.37l-9.33-0.296l-3.364-0.36l-2.997-0.323l-2.98-0.35l-0.265-0.109l-0.898-0.259l-1.044-0.191l-1.944-0.423l-3.605-0.841
	l-1.129-0.262l-3.225-1.039l-2.511-0.836l-3.393-1.216l-1.816-0.625l-4.767-1.95l0.304-0.664l2.968-1.261l0.542-0.445l-1.9-0.188
	l-0.794-1.12l0.75-1.143l0.396,0.262l3.079,1.636l1.302,0.729l4.236,0.037l-0.979-2.564l0.405-0.737l-2.861-1.779l-1.949-3.405
	l-1.036-0.402l-0.126-0.642l0.373-1.157l-2.73,0.234v-2.313l-0.772,0.087l-0.508,1.627l-0.708,0.884l-0.214,0.329l1.563-0.067
	l-0.611,2.074l1.113-0.411l-0.025-0.025l0.458,0.94l-0.045,0.841l-0.767-0.098l-0.695-0.465l-1.697,1.52l-0.944-2.296h-2.174
	l-0.69,1.271l-2.325-0.003l0.287-0.841l-0.029-1.495l-0.888-0.317l-1.912,1.482l-3.008,2.274l-0.316-0.6l-0.017-2.432l-0.221-0.788
	l-1.537-1.472l-1.029-0.02l-1.392,2.372l-0.193,0.178l-0.435-0.217l-2.775-2.375l-3.638-2.97l-2.187-1.863l-4.945-4.9l-1.521-1.601
	l-1.469-1.771l-1.104-1.214l-1.745-2.266l-2.5-3.247l-1.907-2.604l-0.826-1.165l-1.875-3.065l-1.741-2.936l-1.965-3.552
	l-2.015-4.281l-2.399-5.122l-0.792-2.336l-1.613-4.799l-0.925-2.795l-0.461-2.026l-0.756-3.141l-0.598-2.204l-0.294-2.517
	l-0.137-0.455l-0.237-0.809l-0.352-3.577l-0.035-0.191l-0.342-2.176l-0.023-1.871L20.595,133.182L20.595,133.182z M221.264,105.267
	l0.399-0.501l1.066-1.866l0.259-1.379l-1.291-3.656l-1.7-1.857l-1.376,0.785l0.534,2.814l0.271,1.024l1.055,2.947L221.264,105.267
	L221.264,105.267z M188.914,192.01l2.22-0.011l1.112,0.462l1.607,1.705l2.217-1.768l-1.998-0.099l-0.148-0.844l-2.168-0.521
	l-0.36-0.13l-2.513,0.799L188.914,192.01L188.914,192.01z M110.457,25.057l-1.886,0.383l-0.546,0.349l-0.451,0.523l-1.024-0.191
	l0.493,0.85l-0.535,1.641l0.38,1.033l0.89-0.771l0.287-0.2l1.334-0.692l0.315-0.639l0.324-0.901L110.457,25.057L110.457,25.057z
	 M181.886,192.005l4.199-0.009l1.036-1.557l-0.079-0.174l-0.836-0.806l-0.501-0.104l-0.22,0.391l-0.855,0.878l-2.237,0.003
	L181.886,192.005L181.886,192.005z M70.378,187.766l-0.383-0.144l-1.152,0.569l-1.254,0.267l-0.204,0.206l-1.578,1.007l-0.556,0.353
	l1.409,0.292l1.176-0.627l2.132-1.183L70.378,187.766L70.378,187.766z M178.911,187.721l-1.241-0.236l-0.561,0.135l-1.314,0.617
	l-0.394,0.695h2.749L178.911,187.721L178.911,187.721z M140.535,33.002l0.208-2.127l-2.442,1.312l-0.144,0.543L140.535,33.002
	L140.535,33.002z M178.522,185.579l-1.044-0.217l-1.388-0.371l-0.54,0.287l0.723,1.171l1.771-0.028L178.522,185.579L178.522,185.579
	z M61.863,200.738l0.542-0.031l0.531-0.154l-1.822-0.893l-0.269,1.635l0.903,0.6L61.863,200.738L61.863,200.738z M209.837,144.943
	l1.584-0.948l-1.123-1.407l-0.464,0.473L209.837,144.943L209.837,144.943z M52.953,187.834l0.76,1.736l0.46,0.011l0.502-1.063
	l-0.827-0.684H52.953L52.953,187.834z M197.717,148.102l1.455-1.129l-1.364-1.261l-0.088,0.365L197.717,148.102L197.717,148.102z
	 M186.152,200.381l0.605,1.219l1.063-0.493l-0.163-0.878L186.152,200.381L186.152,200.381z M174.977,193.39l0.855-0.831
	l-0.904-0.932l-0.796,0.921L174.977,193.39L174.977,193.39z M49.819,184.864l-0.042,1.021l1.292,0.679l0.642-0.338L49.819,184.864
	L49.819,184.864z M31.173,99.914l0.247,1.117l0.68,0.662l0.547-0.327l0.012-1.452H31.173L31.173,99.914z M31.063,112.475v2.722
	l0.998-0.72L31.063,112.475L31.063,112.475z M153.743,36.866l-0.785,0.788l0.901,0.977l0.734-0.94L153.743,36.866L153.743,36.866z
	 M157.867,35.924l-0.851,1.199l1.404,0.262l0.188-1.176L157.867,35.924L157.867,35.924z M149.843,42.194l-1.165-0.875l-0.634,0.867
	l0.597,0.802L149.843,42.194L149.843,42.194z M147.565,30.024l0.954-0.867l-0.917-0.907l-0.858,0.653L147.565,30.024L147.565,30.024
	z M198.249,194.462l-1.849,0.118l0.112,1.148L198.249,194.462L198.249,194.462z M35.491,126.708l0.491,1.244l1.131,0.661
	L35.491,126.708L35.491,126.708z M147.943,31.761l-0.789,1.146l0.749,0.479l0.858-0.458L147.943,31.761L147.943,31.761z
	 M190.842,187.194l-0.513-1.331l-0.897,0.616l0.295,0.707L190.842,187.194L190.842,187.194z M138.824,29.712v1.272l1.213-0.262
	l0.003-0.692L138.824,29.712L138.824,29.712z M195.846,153.964l0.265,1.228l0.779-0.152l0.138-1.075H195.846L195.846,153.964z
	 M143.302,30.148l-0.794-0.4l-0.436,1.202l0.669,0.408L143.302,30.148L143.302,30.148z M70.723,202.016l0.689-0.895l-0.672-0.426
	l-0.571,0.383L70.723,202.016L70.723,202.016z M183.78,194.684h1.398l-0.067-0.661l-0.121-0.239L183.78,194.684L183.78,194.684z
	 M179.316,186.185l0.92-0.695l-0.92-0.541V186.185L179.316,186.185z M180.003,190.102l0.938-0.827l-0.938-0.594V190.102
	L180.003,190.102z M44.662,137.152l-1.019,0.065l0.065,1.061l0.954-0.062V137.152L44.662,137.152z M75.652,50.919l0.304-0.822
	l-0.717-0.349l-0.362,0.245l0.09,0.439L75.652,50.919L75.652,50.919z M154.903,31.75l-0.293,0.51l0.597,0.681l0.476-0.347
	L154.903,31.75L154.903,31.75z M203.96,185.489l0.932,1.356l0.399-0.254l-0.655-0.895L203.96,185.489L203.96,185.489z
	 M180.205,177.552l0.484,0.653h0.619l0.236-0.571l-0.529-0.284L180.205,177.552L180.205,177.552z M41.299,140.316l1.199-0.392
	l-0.452-0.622L41.299,140.316L41.299,140.316z M68.988,50.863l1.127-0.912h-1.127V50.863L68.988,50.863z M174.908,198.407
	l0.858-0.926h-0.937L174.908,198.407L174.908,198.407z M53.668,68.015l1.042-0.29l-0.492-0.577L53.668,68.015L53.668,68.015z
	 M54.896,190.963l0.546,1.027l0.414-1.027H54.896L54.896,190.963z M69.116,53.12l-0.152,0.481l0.533,0.512l0.619-0.312l-0.5-0.554
	L69.116,53.12L69.116,53.12z M34.8,124.791l0.919-0.88H34.8V124.791L34.8,124.791z M51.638,188.298l0.348-0.057l0.25-1.055
	l-1.167,0.075L51.638,188.298L51.638,188.298z M199.586,184.819v0.939l0.836-0.858L199.586,184.819L199.586,184.819z
	 M197.571,181.476l-0.774-0.395l-0.441,0.484l0.438,0.484L197.571,181.476L197.571,181.476z M50.723,68.696l-0.876,0.372
	l0.546,0.515L50.723,68.696L50.723,68.696z M93.558,206.728l-0.498-0.842l-0.397,0.425L93.558,206.728L93.558,206.728z
	 M76.099,52.439l-1.188,0.481L76.099,52.439L76.099,52.439z M194.945,199.457l-0.392-0.72l-0.492,0.72H194.945L194.945,199.457z
	 M113.496,23.855l-0.833,0.431l-0.11,0.411l0.372,0.167L113.496,23.855L113.496,23.855z M30.316,81.665l0.447,0.718l0.718-0.355
	l-0.141-0.253L30.316,81.665L30.316,81.665z M109.297,24.879l-0.07-0.991l-0.411,0.096L109.297,24.879L109.297,24.879z
	 M218.781,108.724l-0.689-0.217l-0.245,0.324l0.437,0.34L218.781,108.724L218.781,108.724z M61.614,194.712l-0.443-0.386
	l-0.349,0.448l0.352,0.298L61.614,194.712L61.614,194.712z M55.098,55.766l-0.511-0.323l-0.449,0.349l0.428,0.265L55.098,55.766
	L55.098,55.766z M55.992,57.609l0.331-0.498l-0.336-0.296l-0.339,0.324L55.992,57.609L55.992,57.609z M110.915,25.839l0.569-0.411
	l-0.242-0.211L110.915,25.839L110.915,25.839z"/>
	</mask>
</svg>